<mxfile host="app.diagrams.net" modified="2023-10-06T13:02:28.494Z" agent="Mozilla/5.0 (Windows NT 10.0; Win64; x64) AppleWebKit/537.36 (KHTML, like Gecko) Chrome/117.0.0.0 Safari/537.36" version="22.0.2" etag="SwSmeYOCNTYG1GgyXGzd" type="github">
  <diagram name="페이지-1" id="3FgsR9A7n69XF-ijEOwY">
    <mxGraphModel>
      <root>
        <mxCell id="0" />
        <mxCell id="1" parent="0" />
      </root>
    </mxGraphModel>
  </diagram>
</mxfile>
